<svg width="100" height="82" viewBox="0 0 100 82" fill="none" xmlns="http://www.w3.org/2000/svg">
<path d="M33.704 58.266C33.322 45.7277 22.4699 47.5759 22.4039 47.4908C27.1694 39.6948 25.6928 32.854 17.7376 34.1771C7.13622 36.0655 3.78672 45.8478 3.78672 45.8478C1.99149 46.7977 3.14265 51.2528 3.18713 57.2476C3.23982 64.6631 4.44243 70.7701 7.23968 70.5947C7.66934 70.568 8.12063 70.4374 8.55531 70.1683C8.34876 72.1756 19.6855 72.4986 23.6242 71.8578C28.2714 71.0762 33.4342 65.6364 33.704 58.266V58.266ZM19.554 39.0018C21.2604 38.6204 18.2946 47.7265 9.86395 51.7348C9.84712 51.7668 9.78288 51.5327 9.6659 51.1087C9.6659 51.1087 9.66643 51.1045 9.66749 51.0962C9.43508 50.2697 8.99898 48.7269 8.28302 46.9697C8.28302 46.9697 8.28356 46.9655 8.29407 46.9498C8.539 46.563 12.5592 40.3481 19.5587 38.9981L19.554 39.0018ZM26.1393 64.093C24.8679 65.1815 22.3625 68.1433 10.9797 65.2482C11.0726 65.2556 11.392 62.3546 10.9477 59.3572C10.8894 58.9747 10.8185 58.5906 10.7382 58.2139C10.7382 58.2139 10.7629 58.1871 10.8212 58.1305C11.5865 57.3703 17.7028 51.6034 25.6834 52.7134C30.6612 53.8364 28.3102 62.2272 26.1434 64.0935L26.1393 64.093Z" fill="black"/>
<path d="M50.4948 72.8293C48.5008 72.9228 47.5231 70.7063 46.6319 67.3327C46.6167 67.2839 46.5574 67.2807 46.539 67.3253C43.3088 74.8122 39.4006 71.599 39.2276 71.4493L39.2234 71.4488C37.4609 70.1137 36.7802 67.4359 36.485 62.6839C36.1637 57.4299 36.1612 52.6552 38.9644 52.3655C42.3468 52.0125 40.9428 57.2234 41.46 62.3785C41.6035 63.8076 41.7529 65.1224 41.8622 66.2829C41.8699 66.3904 41.9989 66.4494 42.0839 66.3834C43.1274 65.5134 44.5298 59.4028 44.8653 57.8934C45.0904 56.9883 45.5119 56.3168 46.5719 56.0926C49.7112 55.4361 50.2001 59.2619 51.2214 63.9009C52.2449 68.5572 53.538 72.6977 50.5069 72.8351L50.4948 72.8293Z" fill="black"/>
<path d="M64.3962 71.9448C62.2993 73.7987 60.6763 74.5998 59.0352 73.9577C59.031 73.9572 59.0226 73.9562 59.0184 73.9556C58.7667 73.8556 58.5109 73.721 58.2551 73.5523C58.2315 73.5366 58.2122 73.5213 58.1886 73.5056C58.1886 73.5056 58.1849 73.5008 58.177 73.4956C58.1425 73.4656 58.1042 73.431 58.0696 73.401C58.0392 73.3716 58.0094 73.338 57.9795 73.3044C55.4026 70.5194 55.6468 59.7738 56.383 44.7593C57.1883 28.253 54.0995 17.3338 57.6065 16.3656C62.7344 14.9498 62.0621 29.4907 61.8499 44.9124C61.7389 53.1853 62.0304 60.9719 61.8049 66.4042C61.8006 66.4718 61.8766 66.5113 61.9323 66.4757C63.9529 65.1919 65.974 64.8844 66.8472 65.8685C67.9216 67.0827 66.8271 69.8091 64.3994 71.9537L64.3962 71.9448Z" fill="black"/>
<path d="M92.1513 60.2996C90.8465 60.8766 87.8053 57.6834 82.5695 53.8763C80.0554 52.0456 77.279 51.0769 75.5078 50.0135C76.946 63.2692 78.4613 73.0775 75.2609 73.0698C71.8008 73.0592 70.7943 60.3355 69.5379 44.2893C68.2815 28.2431 66.4294 15.0247 70.7085 14.9639C74.2914 14.9133 73.6164 23.635 74.4005 37.243C74.5574 36.8109 74.7237 36.3715 74.8942 35.9327C77.489 29.427 77.8279 23.4336 80.3187 24.234C83.3904 25.2272 81.1449 30.5536 79.4048 37.3803C78.6389 40.3742 78.0431 43.2019 77.3249 45.345C79.3082 46.2817 82.2912 48.2143 85.3491 50.5996C90.3592 54.5061 95.3262 58.8888 92.1513 60.2996Z" fill="black"/>
<path d="M39.9179 17.6632C40.8677 17.8044 41.7519 17.1487 41.8926 16.2031C42.0339 15.2533 41.3782 14.3691 40.4325 14.2284C39.4827 14.0871 38.5985 14.7428 38.4578 15.6884C38.3166 16.6383 38.9722 17.5224 39.9179 17.6632Z" fill="black"/>
<path d="M63.4147 10.8083C62.8159 14.842 58.6596 13.2217 53.5861 13.4635C51.0942 13.5837 46.7212 17.1239 44.4696 14.6315C42.3863 12.3265 46.9135 8.40937 51.7561 6.9576C56.5992 5.50163 64.159 5.79114 63.4147 10.8083V10.8083Z" fill="black"/>
</svg>
